<svg width="98" height="407" viewBox="0 0 98 407" fill="none" xmlns="http://www.w3.org/2000/svg">
<mask id="path-1-outside-1_16_130" maskUnits="userSpaceOnUse" x="-0.193237" y="-0.886353" width="98" height="408" fill="black">
<rect fill="white" x="-0.193237" y="-0.886353" width="98" height="408"/>
<path d="M30.4318 342.006V356.938C28.4999 357.21 26.784 357.767 25.284 358.608C23.7613 359.449 22.4659 360.528 21.3977 361.847C20.3295 363.165 19.5113 364.688 18.9431 366.415C18.3749 368.119 18.0909 369.972 18.0909 371.972C18.0909 375.585 18.9886 378.733 20.784 381.415C22.5568 384.097 25.1477 386.176 28.5568 387.653C31.9431 389.131 36.0568 389.869 40.8977 389.869C45.8749 389.869 50.0568 389.131 53.4431 387.653C56.8295 386.153 59.3863 384.063 61.1136 381.381C62.8409 378.699 63.7045 375.597 63.7045 372.074C63.7045 370.097 63.4431 368.267 62.9204 366.585C62.3977 364.881 61.6363 363.369 60.6363 362.051C59.6136 360.733 58.3749 359.642 56.9204 358.778C55.4659 357.892 53.8068 357.278 51.9431 356.938L52.0113 342.006C55.2159 342.392 58.3068 343.358 61.284 344.903C64.2386 346.426 66.8863 348.483 69.2272 351.074C71.5454 353.642 73.3863 356.71 74.7499 360.278C76.0909 363.824 76.7613 367.835 76.7613 372.313C76.7613 378.54 75.3522 384.108 72.534 389.017C69.7159 393.903 65.6363 397.767 60.2954 400.608C54.9545 403.426 48.4886 404.835 40.8977 404.835C33.284 404.835 26.8068 403.403 21.4659 400.54C16.1249 397.676 12.0568 393.79 9.26131 388.881C6.44312 383.972 5.03403 378.449 5.03403 372.313C5.03403 368.267 5.60221 364.517 6.73858 361.063C7.87494 357.585 9.53403 354.506 11.7158 351.824C13.8749 349.142 16.5227 346.96 19.659 345.278C22.7954 343.574 26.3863 342.483 30.4318 342.006ZM5.98858 317.17H75.8068V331.693H5.98858V317.17ZM75.8068 305.537H23.4431V291.014H75.8068V305.537ZM16.6931 298.241C16.6931 300.401 15.9772 302.253 14.5454 303.798C13.0909 305.321 11.3522 306.082 9.32949 306.082C7.32949 306.082 5.61358 305.321 4.18176 303.798C2.72721 302.253 1.99994 300.401 1.99994 298.241C1.99994 296.082 2.72721 294.241 4.18176 292.719C5.61358 291.173 7.32949 290.401 9.32949 290.401C11.3522 290.401 13.0909 291.173 14.5454 292.719C15.9772 294.241 16.6931 296.082 16.6931 298.241ZM95.4431 279.381H23.4431V265.063H32.2386V264.415C30.8295 263.778 29.3977 262.858 27.9431 261.653C26.4659 260.426 25.2386 258.835 24.2613 256.881C23.2613 254.903 22.7613 252.449 22.7613 249.517C22.7613 245.699 23.7613 242.176 25.7613 238.949C27.7386 235.722 30.7272 233.142 34.7272 231.21C38.7045 229.278 43.6931 228.313 49.6931 228.313C55.534 228.313 60.4659 229.256 64.4886 231.142C68.4886 233.006 71.5227 235.551 73.5909 238.778C75.6363 241.983 76.659 245.574 76.659 249.551C76.659 252.369 76.1931 254.767 75.2613 256.744C74.3295 258.699 73.159 260.301 71.7499 261.551C70.3181 262.801 68.8749 263.756 67.4204 264.415V264.858H95.4431V279.381ZM49.6249 265.165C52.7386 265.165 55.4545 264.733 57.7727 263.869C60.0909 263.006 61.8977 261.756 63.1931 260.119C64.4659 258.483 65.1022 256.494 65.1022 254.153C65.1022 251.79 64.4545 249.79 63.159 248.153C61.8409 246.517 60.0227 245.278 57.7045 244.438C55.3636 243.574 52.6704 243.142 49.6249 243.142C46.6022 243.142 43.9431 243.563 41.6477 244.403C39.3522 245.244 37.5568 246.483 36.2613 248.119C34.9659 249.756 34.3181 251.767 34.3181 254.153C34.3181 256.517 34.9431 258.517 36.1931 260.153C37.4431 261.767 39.2159 263.006 41.5113 263.869C43.8068 264.733 46.5113 265.165 49.6249 265.165ZM75.8068 193.608V218.358H5.98858V193.403C5.98858 186.381 7.38631 180.335 10.1818 175.267C12.9545 170.199 16.9431 166.301 22.1477 163.574C27.3522 160.824 33.5795 159.449 40.8295 159.449C48.1022 159.449 54.3522 160.824 59.5795 163.574C64.8068 166.301 68.8181 170.222 71.6136 175.335C74.409 180.426 75.8068 186.517 75.8068 193.608ZM63.159 203.597V194.222C63.159 189.858 62.3863 186.188 60.8409 183.21C59.2727 180.21 56.8522 177.96 53.5795 176.46C50.284 174.938 46.034 174.176 40.8295 174.176C35.6704 174.176 31.4545 174.938 28.1818 176.46C24.909 177.96 22.4999 180.199 20.9545 183.176C19.409 186.153 18.6363 189.824 18.6363 194.188V203.597H63.159ZM75.8068 148.787H23.4431V134.707H32.5795V134.162C29.3295 133.207 26.8749 131.605 25.2159 129.355C23.534 127.105 22.6931 124.514 22.6931 121.582C22.6931 120.855 22.7386 120.071 22.8295 119.23C22.9204 118.389 23.0454 117.651 23.2045 117.014H36.0909C35.8863 117.696 35.7045 118.639 35.5454 119.844C35.3863 121.048 35.3068 122.151 35.3068 123.151C35.3068 125.287 35.7727 127.196 36.7045 128.878C37.6136 130.537 38.8863 131.855 40.5227 132.832C42.159 133.787 44.0454 134.264 46.1818 134.264H75.8068V148.787ZM76.8295 88.2841C76.8295 93.5796 75.7045 98.1591 73.4545 102.023C71.1818 105.864 68.0227 108.83 63.9772 110.92C59.909 113.011 55.1931 114.057 49.8295 114.057C44.4204 114.057 39.6931 113.011 35.6477 110.92C31.5795 108.83 28.4204 105.864 26.1704 102.023C23.8977 98.1591 22.7613 93.5796 22.7613 88.2841C22.7613 82.9886 23.8977 78.4205 26.1704 74.5796C28.4204 70.7159 31.5795 67.7386 35.6477 65.6477C39.6931 63.5568 44.4204 62.5114 49.8295 62.5114C55.1931 62.5114 59.909 63.5568 63.9772 65.6477C68.0227 67.7386 71.1818 70.7159 73.4545 74.5796C75.7045 78.4205 76.8295 82.9886 76.8295 88.2841ZM65.5795 88.2159C65.5795 85.8068 64.8977 83.7955 63.534 82.1818C62.1477 80.5682 60.2613 79.3523 57.8749 78.5341C55.4886 77.6932 52.7727 77.2727 49.7272 77.2727C46.6818 77.2727 43.9659 77.6932 41.5795 78.5341C39.1931 79.3523 37.3068 80.5682 35.9204 82.1818C34.534 83.7955 33.8409 85.8068 33.8409 88.2159C33.8409 90.6477 34.534 92.6932 35.9204 94.3523C37.3068 95.9886 39.1931 97.2273 41.5795 98.0682C43.9659 98.8864 46.6818 99.2955 49.7272 99.2955C52.7727 99.2955 55.4886 98.8864 57.8749 98.0682C60.2613 97.2273 62.1477 95.9886 63.534 94.3523C64.8977 92.6932 65.5795 90.6477 65.5795 88.2159ZM95.4431 53.0682H23.4431V38.75H32.2386V38.1023C30.8295 37.4659 29.3977 36.5455 27.9431 35.3409C26.4659 34.1136 25.2386 32.5227 24.2613 30.5682C23.2613 28.5909 22.7613 26.1364 22.7613 23.2046C22.7613 19.3864 23.7613 15.8636 25.7613 12.6364C27.7386 9.4091 30.7272 6.82956 34.7272 4.89774C38.7045 2.96592 43.6931 2.00001 49.6931 2.00001C55.534 2.00001 60.4659 2.94319 64.4886 4.82956C68.4886 6.69319 71.5227 9.23865 73.5909 12.4659C75.6363 15.6705 76.659 19.2614 76.659 23.2386C76.659 26.0568 76.1931 28.4546 75.2613 30.4318C74.3295 32.3864 73.159 33.9886 71.7499 35.2386C70.3181 36.4886 68.8749 37.4432 67.4204 38.1023V38.5455H95.4431V53.0682ZM49.6249 38.8523C52.7386 38.8523 55.4545 38.4205 57.7727 37.5568C60.0909 36.6932 61.8977 35.4432 63.1931 33.8068C64.4659 32.1705 65.1022 30.1818 65.1022 27.8409C65.1022 25.4773 64.4545 23.4773 63.159 21.8409C61.8409 20.2046 60.0227 18.9659 57.7045 18.125C55.3636 17.2614 52.6704 16.8296 49.6249 16.8296C46.6022 16.8296 43.9431 17.25 41.6477 18.0909C39.3522 18.9318 37.5568 20.1705 36.2613 21.8068C34.9659 23.4432 34.3181 25.4546 34.3181 27.8409C34.3181 30.2046 34.9431 32.2046 36.1931 33.8409C37.4431 35.4546 39.2159 36.6932 41.5113 37.5568C43.8068 38.4205 46.5113 38.8523 49.6249 38.8523Z"/>
</mask>
<path d="M30.4318 342.006H32.4318V339.756L30.1974 340.019L30.4318 342.006ZM30.4318 356.938L30.7113 358.918L32.4318 358.675V356.938H30.4318ZM25.284 358.608L26.2509 360.359L26.262 360.353L25.284 358.608ZM21.3977 361.847L22.9515 363.106L22.9515 363.106L21.3977 361.847ZM18.9431 366.415L20.8405 367.047L20.843 367.04L18.9431 366.415ZM20.784 381.415L22.4525 380.312L22.446 380.302L20.784 381.415ZM28.5568 387.653L29.3565 385.82L29.352 385.818L28.5568 387.653ZM53.4431 387.653L54.2428 389.487L54.2531 389.482L53.4431 387.653ZM61.1136 381.381L62.795 382.464L62.795 382.464L61.1136 381.381ZM62.9204 366.585L61.0083 367.172L61.0105 367.179L62.9204 366.585ZM60.6363 362.051L62.2297 360.842L62.2231 360.834L62.2165 360.825L60.6363 362.051ZM56.9204 358.778L55.8797 360.486L55.8895 360.492L55.8993 360.498L56.9204 358.778ZM51.9431 356.938L49.9431 356.928L49.9355 358.603L51.5832 358.905L51.9431 356.938ZM52.0113 342.006L52.2507 340.02L50.0216 339.751L50.0113 341.997L52.0113 342.006ZM61.284 344.903L60.3626 346.679L60.3678 346.681L61.284 344.903ZM69.2272 351.074L70.7118 349.734L70.7112 349.733L69.2272 351.074ZM74.7499 360.278L76.6206 359.571L76.6182 359.564L74.7499 360.278ZM72.534 389.017L74.2665 390.016L74.2685 390.013L72.534 389.017ZM60.2954 400.608L61.2288 402.377L61.2346 402.374L60.2954 400.608ZM21.4659 400.54L22.4109 398.777L22.4109 398.777L21.4659 400.54ZM9.26131 388.881L10.9993 387.891L10.9958 387.885L9.26131 388.881ZM6.73858 361.063L8.63843 361.687L8.63964 361.684L6.73858 361.063ZM11.7158 351.824L13.2673 353.086L13.2737 353.078L11.7158 351.824ZM19.659 345.278L20.6042 347.041L20.6141 347.036L19.659 345.278ZM30.4318 342.006H28.4318V356.938H30.4318H32.4318V342.006H30.4318ZM30.4318 356.938L30.1522 354.957C28.0077 355.26 26.0493 355.886 24.306 356.863L25.284 358.608L26.262 360.353C27.5188 359.648 28.9922 359.161 30.7113 358.918L30.4318 356.938ZM25.284 358.608L24.3172 356.857C22.5748 357.819 21.0783 359.064 19.8438 360.587L21.3977 361.847L22.9515 363.106C23.8534 361.993 24.9478 361.078 26.2509 360.359L25.284 358.608ZM21.3977 361.847L19.8438 360.587C18.6121 362.107 17.6818 363.849 17.0433 365.79L18.9431 366.415L20.843 367.04C21.3408 365.526 22.0469 364.222 22.9515 363.106L21.3977 361.847ZM18.9431 366.415L17.0458 365.782C16.4024 367.712 16.0909 369.781 16.0909 371.972H18.0909H20.0909C20.0909 370.162 20.3475 368.526 20.8405 367.047L18.9431 366.415ZM18.0909 371.972H16.0909C16.0909 375.932 17.0804 379.478 19.1221 382.527L20.784 381.415L22.446 380.302C20.8968 377.988 20.0909 375.238 20.0909 371.972H18.0909ZM20.784 381.415L19.1156 382.518C21.134 385.571 24.0533 387.882 27.7615 389.489L28.5568 387.653L29.352 385.818C26.242 384.471 23.9796 382.622 22.4525 380.312L20.784 381.415ZM28.5568 387.653L27.7571 389.487C31.4609 391.102 35.863 391.869 40.8977 391.869V389.869V387.869C36.2505 387.869 32.4253 387.159 29.3565 385.82L28.5568 387.653ZM40.8977 389.869V391.869C46.0599 391.869 50.5329 391.105 54.2428 389.487L53.4431 387.653L52.6434 385.82C49.5806 387.156 45.69 387.869 40.8977 387.869V389.869ZM53.4431 387.653L54.2531 389.482C57.9377 387.85 60.8239 385.524 62.795 382.464L61.1136 381.381L59.4321 380.298C57.9487 382.601 55.7213 384.457 52.6331 385.825L53.4431 387.653ZM61.1136 381.381L62.795 382.464C64.7517 379.426 65.7045 375.939 65.7045 372.074H63.7045H61.7045C61.7045 375.254 60.93 377.972 59.4321 380.298L61.1136 381.381ZM63.7045 372.074H65.7045C65.7045 369.92 65.4196 367.888 64.8303 365.992L62.9204 366.585L61.0105 367.179C61.4667 368.647 61.7045 370.274 61.7045 372.074H63.7045ZM62.9204 366.585L64.8325 365.999C64.2463 364.087 63.3823 362.362 62.2297 360.842L60.6363 362.051L59.0429 363.26C59.8903 364.377 60.5491 365.674 61.0083 367.172L62.9204 366.585ZM60.6363 362.051L62.2165 360.825C61.0378 359.306 59.6086 358.049 57.9415 357.059L56.9204 358.778L55.8993 360.498C57.1413 361.236 58.1893 362.16 59.0561 363.277L60.6363 362.051ZM56.9204 358.778L57.9611 357.071C56.2752 356.043 54.3806 355.35 52.303 354.97L51.9431 356.938L51.5832 358.905C53.2329 359.207 54.6565 359.741 55.8797 360.486L56.9204 358.778ZM51.9431 356.938L53.9431 356.947L54.0113 342.015L52.0113 342.006L50.0113 341.997L49.9431 356.928L51.9431 356.938ZM52.0113 342.006L51.7719 343.991C54.729 344.348 57.5897 345.239 60.3626 346.679L61.284 344.903L62.2055 343.128C59.0238 341.477 55.7027 340.436 52.2507 340.02L52.0113 342.006ZM61.284 344.903L60.3678 346.681C63.0977 348.088 65.5555 349.993 67.7432 352.415L69.2272 351.074L70.7112 349.733C68.2171 346.973 65.3795 344.764 62.2003 343.126L61.284 344.903ZM69.2272 351.074L67.7426 352.414C69.879 354.781 71.597 357.631 72.8817 360.992L74.7499 360.278L76.6182 359.564C75.1756 355.79 73.2118 352.503 70.7118 349.734L69.2272 351.074ZM74.7499 360.278L72.8793 360.986C74.1207 364.268 74.7613 368.034 74.7613 372.313H76.7613H78.7613C78.7613 367.636 78.061 363.379 76.6206 359.571L74.7499 360.278ZM76.7613 372.313H74.7613C74.7613 378.226 73.4267 383.445 70.7995 388.021L72.534 389.017L74.2685 390.013C77.2777 384.771 78.7613 378.853 78.7613 372.313H76.7613ZM72.534 389.017L70.8015 388.018C68.1843 392.556 64.391 396.164 59.3562 398.842L60.2954 400.608L61.2346 402.374C66.8816 399.37 71.2474 395.251 74.2665 390.016L72.534 389.017ZM60.2954 400.608L59.362 398.839C54.3734 401.471 48.2451 402.835 40.8977 402.835V404.835V406.835C48.732 406.835 55.5356 405.381 61.2288 402.377L60.2954 400.608ZM40.8977 404.835V402.835C33.5309 402.835 27.396 401.45 22.4109 398.777L21.4659 400.54L20.5208 402.302C26.2175 405.357 33.0371 406.835 40.8977 406.835V404.835ZM21.4659 400.54L22.4109 398.777C17.3766 396.078 13.5948 392.449 10.9993 387.891L9.26131 388.881L7.52334 389.87C10.5187 395.131 14.8733 399.274 20.5208 402.302L21.4659 400.54ZM9.26131 388.881L10.9958 387.885C8.36607 383.304 7.03403 378.13 7.03403 372.313H5.03403H3.03403C3.03403 378.768 4.52018 384.639 7.5268 389.876L9.26131 388.881ZM5.03403 372.313H7.03403C7.03403 368.456 7.57541 364.919 8.63843 361.687L6.73858 361.063L4.83873 360.438C3.62902 364.115 3.03403 368.078 3.03403 372.313H5.03403ZM6.73858 361.063L8.63964 361.684C9.70425 358.426 11.2492 355.567 13.2673 353.086L11.7158 351.824L10.1644 350.562C7.81888 353.445 6.04564 356.744 4.83752 360.441L6.73858 361.063ZM11.7158 351.824L13.2737 353.078C15.259 350.612 17.6959 348.6 20.6042 347.041L19.659 345.278L18.7139 343.516C15.3494 345.32 12.4909 347.672 10.158 350.57L11.7158 351.824ZM19.659 345.278L20.6141 347.036C23.4977 345.468 26.8379 344.444 30.6661 343.992L30.4318 342.006L30.1974 340.019C25.9347 340.522 22.0931 341.679 18.704 343.521L19.659 345.278ZM5.98858 317.17V315.17H3.98858V317.17H5.98858ZM75.8068 317.17H77.8068V315.17H75.8068V317.17ZM75.8068 331.693V333.693H77.8068V331.693H75.8068ZM5.98858 331.693H3.98858V333.693H5.98858V331.693ZM5.98858 317.17V319.17H75.8068V317.17V315.17H5.98858V317.17ZM75.8068 317.17H73.8068V331.693H75.8068H77.8068V317.17H75.8068ZM75.8068 331.693V329.693H5.98858V331.693V333.693H75.8068V331.693ZM5.98858 331.693H7.98858V317.17H5.98858H3.98858V331.693H5.98858ZM75.8068 305.537V307.537H77.8068V305.537H75.8068ZM23.4431 305.537H21.4431V307.537H23.4431V305.537ZM23.4431 291.014V289.014H21.4431V291.014H23.4431ZM75.8068 291.014H77.8068V289.014H75.8068V291.014ZM14.5454 303.798L15.9916 305.18L16.0022 305.169L16.0125 305.158L14.5454 303.798ZM4.18176 303.798L5.6388 302.428L5.63816 302.428L4.18176 303.798ZM4.18176 292.719L5.62798 294.1L5.63852 294.089L5.64889 294.078L4.18176 292.719ZM14.5454 292.719L16.0024 291.349L16.0018 291.348L14.5454 292.719ZM75.8068 305.537V303.537H23.4431V305.537V307.537H75.8068V305.537ZM23.4431 305.537H25.4431V291.014H23.4431H21.4431V305.537H23.4431ZM23.4431 291.014V293.014H75.8068V291.014V289.014H23.4431V291.014ZM75.8068 291.014H73.8068V305.537H75.8068H77.8068V291.014H75.8068ZM16.6931 298.241H14.6931C14.6931 299.91 14.1582 301.273 13.0783 302.439L14.5454 303.798L16.0125 305.158C17.7962 303.232 18.6931 300.891 18.6931 298.241H16.6931ZM14.5454 303.798L13.0992 302.417C12.0046 303.563 10.7812 304.082 9.32949 304.082V306.082V308.082C11.9232 308.082 14.1771 307.079 15.9916 305.18L14.5454 303.798ZM9.32949 306.082V304.082C7.90865 304.082 6.71181 303.569 5.6388 302.428L4.18176 303.798L2.72472 305.168C4.51535 307.073 6.75032 308.082 9.32949 308.082V306.082ZM4.18176 303.798L5.63816 302.428C4.53946 301.26 3.99994 299.901 3.99994 298.241H1.99994H-5.91278e-05C-5.91278e-05 300.9 0.914971 303.245 2.72536 305.169L4.18176 303.798ZM1.99994 298.241H3.99994C3.99994 296.583 4.53875 295.241 5.62798 294.1L4.18176 292.719L2.73554 291.337C0.915679 293.242 -5.91278e-05 295.582 -5.91278e-05 298.241H1.99994ZM4.18176 292.719L5.64889 294.078C6.72495 292.917 7.91902 292.401 9.32949 292.401V290.401V288.401C6.73995 288.401 4.5022 289.43 2.71464 291.36L4.18176 292.719ZM9.32949 290.401V292.401C10.771 292.401 11.9915 292.923 13.089 294.089L14.5454 292.719L16.0018 291.348C14.1902 289.423 11.9335 288.401 9.32949 288.401V290.401ZM14.5454 292.719L13.0884 294.089C14.1589 295.227 14.6931 296.573 14.6931 298.241H16.6931H18.6931C18.6931 295.592 17.7956 293.256 16.0024 291.349L14.5454 292.719ZM95.4431 279.381V281.381H97.4431V279.381H95.4431ZM23.4431 279.381H21.4431V281.381H23.4431V279.381ZM23.4431 265.063V263.063H21.4431V265.063H23.4431ZM32.2386 265.063V267.063H34.2386V265.063H32.2386ZM32.2386 264.415H34.2386V263.124L33.0618 262.592L32.2386 264.415ZM27.9431 261.653L26.6651 263.192L26.6675 263.194L27.9431 261.653ZM24.2613 256.881L26.0502 255.986L26.046 255.978L24.2613 256.881ZM25.7613 238.949L27.4614 240.002L27.4667 239.994L25.7613 238.949ZM34.7272 231.21L35.597 233.011L35.601 233.009L34.7272 231.21ZM64.4886 231.142L63.6394 232.953L63.6439 232.955L64.4886 231.142ZM73.5909 238.778L75.2767 237.702L75.2747 237.699L73.5909 238.778ZM75.2613 256.744L77.0667 257.605L77.0705 257.597L75.2613 256.744ZM71.7499 261.551L73.0653 263.058L73.0712 263.053L73.0772 263.047L71.7499 261.551ZM67.4204 264.415L66.5949 262.593L65.4204 263.125V264.415H67.4204ZM67.4204 264.858H65.4204V266.858H67.4204V264.858ZM95.4431 264.858H97.4431V262.858H95.4431V264.858ZM63.1931 260.119L64.7612 261.361L64.7666 261.354L64.7718 261.347L63.1931 260.119ZM63.159 248.153L64.7271 246.912L64.7219 246.905L64.7165 246.899L63.159 248.153ZM57.7045 244.438L57.0122 246.314L57.0225 246.318L57.7045 244.438ZM41.6477 244.403L40.9597 242.525L40.9597 242.525L41.6477 244.403ZM36.2613 248.119L34.6932 246.878L34.6932 246.878L36.2613 248.119ZM36.1931 260.153L34.6037 261.368L34.612 261.378L36.1931 260.153ZM41.5113 263.869L40.807 265.741L40.807 265.741L41.5113 263.869ZM95.4431 279.381V277.381H23.4431V279.381V281.381H95.4431V279.381ZM23.4431 279.381H25.4431V265.063H23.4431H21.4431V279.381H23.4431ZM23.4431 265.063V267.063H32.2386V265.063V263.063H23.4431V265.063ZM32.2386 265.063H34.2386V264.415H32.2386H30.2386V265.063H32.2386ZM32.2386 264.415L33.0618 262.592C31.8467 262.043 30.5649 261.228 29.2188 260.113L27.9431 261.653L26.6675 263.194C28.2304 264.488 29.8123 265.514 31.4154 266.238L32.2386 264.415ZM27.9431 261.653L29.2212 260.115C27.9844 259.088 26.9206 257.727 26.0502 255.986L24.2613 256.881L22.4725 257.775C23.5566 259.943 24.9473 261.765 26.6651 263.192L27.9431 261.653ZM24.2613 256.881L26.046 255.978C25.2257 254.356 24.7613 252.233 24.7613 249.517H22.7613H20.7613C20.7613 252.665 21.2969 255.451 22.4766 257.783L24.2613 256.881ZM22.7613 249.517H24.7613C24.7613 246.069 25.6586 242.911 27.4613 240.002L25.7613 238.949L24.0613 237.895C21.864 241.441 20.7613 245.329 20.7613 249.517H22.7613ZM25.7613 238.949L27.4667 239.994C29.211 237.147 31.8812 234.806 35.597 233.011L34.7272 231.21L33.8574 229.409C29.5732 231.478 26.2662 234.296 24.0559 237.904L25.7613 238.949ZM34.7272 231.21L35.601 233.009C39.2268 231.248 43.8934 230.313 49.6931 230.313V228.313V226.313C43.4929 226.313 38.1822 227.309 33.8534 229.411L34.7272 231.21ZM49.6931 228.313V230.313C55.3289 230.313 59.9523 231.224 63.6395 232.953L64.4886 231.142L65.3377 229.331C60.9795 227.288 55.7392 226.313 49.6931 226.313V228.313ZM64.4886 231.142L63.6439 232.955C67.3534 234.683 70.0728 236.995 71.907 239.858L73.5909 238.778L75.2747 237.699C72.9725 234.107 69.6237 231.328 65.3332 229.329L64.4886 231.142ZM73.5909 238.778L71.905 239.854C73.7356 242.722 74.659 245.937 74.659 249.551H76.659H78.659C78.659 245.211 77.537 241.244 75.2767 237.702L73.5909 238.778ZM76.659 249.551H74.659C74.659 252.157 74.2274 254.247 73.4521 255.892L75.2613 256.744L77.0705 257.597C78.1588 255.288 78.659 252.582 78.659 249.551H76.659ZM75.2613 256.744L73.456 255.884C72.6223 257.632 71.6038 259.007 70.4227 260.055L71.7499 261.551L73.0772 263.047C74.7143 261.595 76.0367 259.765 77.0666 257.605L75.2613 256.744ZM71.7499 261.551L70.4346 260.045C69.1228 261.19 67.8417 262.028 66.5949 262.593L67.4204 264.415L68.2459 266.236C69.9082 265.483 71.5135 264.413 73.0653 263.058L71.7499 261.551ZM67.4204 264.415H65.4204V264.858H67.4204H69.4204V264.415H67.4204ZM67.4204 264.858V266.858H95.4431V264.858V262.858H67.4204V264.858ZM95.4431 264.858H93.4431V279.381H95.4431H97.4431V264.858H95.4431ZM49.6249 265.165V267.165C52.9179 267.165 55.8799 266.709 58.4709 265.743L57.7727 263.869L57.0745 261.995C55.029 262.757 52.5593 263.165 49.6249 263.165V265.165ZM57.7727 263.869L58.4709 265.743C61.0674 264.776 63.2001 263.333 64.7612 261.361L63.1931 260.119L61.625 258.878C60.5953 260.179 59.1143 261.235 57.0745 261.995L57.7727 263.869ZM63.1931 260.119L64.7718 261.347C66.3525 259.315 67.1022 256.879 67.1022 254.153H65.1022H63.1022C63.1022 256.11 62.5792 257.651 61.6144 258.891L63.1931 260.119ZM65.1022 254.153H67.1022C67.1022 251.402 66.339 248.948 64.7271 246.912L63.159 248.153L61.5909 249.395C62.57 250.632 63.1022 252.178 63.1022 254.153H65.1022ZM63.159 248.153L64.7165 246.899C63.132 244.932 60.9878 243.501 58.3865 242.557L57.7045 244.438L57.0225 246.318C59.0575 247.056 60.5497 248.102 61.6015 249.408L63.159 248.153ZM57.7045 244.438L58.3967 242.561C55.7914 241.6 52.8562 241.142 49.6249 241.142V243.142V245.142C52.4846 245.142 54.9358 245.548 57.0122 246.314L57.7045 244.438ZM49.6249 243.142V241.142C46.421 241.142 43.5207 241.587 40.9597 242.525L41.6477 244.403L42.3356 246.281C44.3655 245.538 46.7834 245.142 49.6249 245.142V243.142ZM41.6477 244.403L40.9597 242.525C38.378 243.471 36.2545 244.906 34.6932 246.878L36.2613 248.119L37.8294 249.361C38.859 248.06 40.3265 247.017 42.3356 246.281L41.6477 244.403ZM36.2613 248.119L34.6932 246.878C33.0786 248.917 32.3181 251.384 32.3181 254.153H34.3181H36.3181C36.3181 252.15 36.8531 250.594 37.8294 249.361L36.2613 248.119ZM34.3181 254.153H32.3181C32.3181 256.888 33.049 259.332 34.6038 261.368L36.1931 260.153L37.7825 258.939C36.8372 257.702 36.3181 256.146 36.3181 254.153H34.3181ZM36.1931 260.153L34.612 261.378C36.1307 263.339 38.2353 264.774 40.807 265.741L41.5113 263.869L42.2156 261.997C40.1964 261.238 38.7555 260.195 37.7742 258.929L36.1931 260.153ZM41.5113 263.869L40.807 265.741C43.3792 266.709 46.3328 267.165 49.6249 267.165V265.165V263.165C46.6898 263.165 44.2344 262.757 42.2156 261.997L41.5113 263.869ZM75.8068 218.358V220.358H77.8068V218.358H75.8068ZM5.98858 218.358H3.98858V220.358H5.98858V218.358ZM10.1818 175.267L11.933 176.233L11.9364 176.227L10.1818 175.267ZM22.1477 163.574L23.076 165.345L23.082 165.342L22.1477 163.574ZM59.5795 163.574L58.6483 165.344L58.6544 165.347L59.5795 163.574ZM71.6136 175.335L69.8587 176.295L69.8605 176.298L71.6136 175.335ZM63.159 203.597V205.597H65.159V203.597H63.159ZM60.8409 183.21L62.616 182.289L62.6133 182.284L60.8409 183.21ZM53.5795 176.46L52.7406 178.276L52.7462 178.278L53.5795 176.46ZM28.1818 176.46L29.0151 178.278L29.0255 178.274L28.1818 176.46ZM20.9545 183.176L19.1794 182.255L19.1794 182.255L20.9545 183.176ZM18.6363 203.597H16.6363V205.597H18.6363V203.597ZM75.8068 193.608H73.8068V218.358H75.8068H77.8068V193.608H75.8068ZM75.8068 218.358V216.358H5.98858V218.358V220.358H75.8068V218.358ZM5.98858 218.358H7.98858V193.403H5.98858H3.98858V218.358H5.98858ZM5.98858 193.403H7.98858C7.98858 186.647 9.33214 180.948 11.933 176.233L10.1818 175.267L8.43049 174.301C5.44047 179.722 3.98858 186.114 3.98858 193.403H5.98858ZM10.1818 175.267L11.9364 176.227C14.5163 171.511 18.2145 167.893 23.076 165.345L22.1477 163.574L21.2194 161.802C15.6717 164.709 11.3927 168.887 8.42718 174.307L10.1818 175.267ZM22.1477 163.574L23.082 165.342C27.9394 162.776 33.8308 161.449 40.8295 161.449V159.449V157.449C33.3282 157.449 26.7651 158.872 21.2133 161.806L22.1477 163.574ZM40.8295 159.449V161.449C47.8517 161.449 53.7672 162.776 58.6483 165.344L59.5795 163.574L60.5107 161.804C54.9373 158.872 48.3527 157.449 40.8295 157.449V159.449ZM59.5795 163.574L58.6544 165.347C63.535 167.893 67.2555 171.533 69.8587 176.295L71.6136 175.335L73.3685 174.376C70.3807 168.911 66.0786 164.709 60.5046 161.801L59.5795 163.574ZM71.6136 175.335L69.8605 176.298C72.4618 181.035 73.8068 186.78 73.8068 193.608H75.8068H77.8068C77.8068 186.254 76.3562 179.817 73.3667 174.373L71.6136 175.335ZM63.159 203.597H65.159V194.222H63.159H61.159V203.597H63.159ZM63.159 194.222H65.159C65.159 189.631 64.3469 185.623 62.616 182.289L60.8409 183.21L59.0658 184.132C60.4257 186.752 61.159 190.085 61.159 194.222H63.159ZM60.8409 183.21L62.6133 182.284C60.8261 178.865 58.0614 176.314 54.4128 174.642L53.5795 176.46L52.7462 178.278C55.643 179.606 57.7193 181.556 59.0684 184.137L60.8409 183.21ZM53.5795 176.46L54.4184 174.645C50.7716 172.96 46.2073 172.176 40.8295 172.176V174.176V176.176C45.8608 176.176 49.7965 176.915 52.7406 178.276L53.5795 176.46ZM40.8295 174.176V172.176C35.495 172.176 30.9633 172.96 27.3381 174.647L28.1818 176.46L29.0255 178.274C31.9457 176.915 35.8458 176.176 40.8295 176.176V174.176ZM28.1818 176.46L27.3485 174.642C23.7023 176.313 20.9456 178.852 19.1794 182.255L20.9545 183.176L22.7296 184.098C24.0543 181.546 26.1157 179.607 29.0151 178.278L28.1818 176.46ZM20.9545 183.176L19.1794 182.255C17.4485 185.589 16.6363 189.596 16.6363 194.188H18.6363H20.6363C20.6363 190.051 21.3696 186.718 22.7296 184.098L20.9545 183.176ZM18.6363 194.188H16.6363V203.597H18.6363H20.6363V194.188H18.6363ZM18.6363 203.597V205.597H63.159V203.597V201.597H18.6363V203.597ZM75.8068 148.787V150.787H77.8068V148.787H75.8068ZM23.4431 148.787H21.4431V150.787H23.4431V148.787ZM23.4431 134.707V132.707H21.4431V134.707H23.4431ZM32.5795 134.707V136.707H34.5795V134.707H32.5795ZM32.5795 134.162H34.5795V132.665L33.1431 132.243L32.5795 134.162ZM25.2159 129.355L26.8256 128.168L26.8178 128.158L25.2159 129.355ZM22.8295 119.23L20.8411 119.015L20.8411 119.015L22.8295 119.23ZM23.2045 117.014V115.014H21.6429L21.2642 116.529L23.2045 117.014ZM36.0909 117.014L38.0065 117.589L38.7789 115.014H36.0909V117.014ZM36.7045 128.878L38.4585 127.917L38.4539 127.909L36.7045 128.878ZM40.5227 132.832L39.4972 134.549L39.506 134.555L39.5149 134.56L40.5227 132.832ZM75.8068 134.264H77.8068V132.264H75.8068V134.264ZM75.8068 148.787V146.787H23.4431V148.787V150.787H75.8068V148.787ZM23.4431 148.787H25.4431V134.707H23.4431H21.4431V148.787H23.4431ZM23.4431 134.707V136.707H32.5795V134.707V132.707H23.4431V134.707ZM32.5795 134.707H34.5795V134.162H32.5795H30.5795V134.707H32.5795ZM32.5795 134.162L33.1431 132.243C30.2213 131.385 28.1741 129.997 26.8256 128.168L25.2159 129.355L23.6062 130.542C25.5758 133.213 28.4377 135.03 32.0159 136.081L32.5795 134.162ZM25.2159 129.355L26.8178 128.158C25.4062 126.269 24.6931 124.103 24.6931 121.582H22.6931H20.6931C20.6931 124.926 21.6618 127.941 23.6139 130.553L25.2159 129.355ZM22.6931 121.582H24.6931C24.6931 120.937 24.7335 120.226 24.8179 119.445L22.8295 119.23L20.8411 119.015C20.7437 119.916 20.6931 120.773 20.6931 121.582H22.6931ZM22.8295 119.23L24.8179 119.445C24.9016 118.671 25.0132 118.026 25.1448 117.499L23.2045 117.014L21.2642 116.529C21.0776 117.275 20.9392 118.108 20.8411 119.015L22.8295 119.23ZM23.2045 117.014V119.014H36.0909V117.014V115.014H23.2045V117.014ZM36.0909 117.014L34.1752 116.44C33.926 117.27 33.7274 118.334 33.5626 119.582L35.5454 119.844L37.5282 120.106C37.6816 118.944 37.8467 118.122 38.0065 117.589L36.0909 117.014ZM35.5454 119.844L33.5626 119.582C33.3944 120.856 33.3068 122.047 33.3068 123.151H35.3068H37.3068C37.3068 122.254 37.3782 121.241 37.5282 120.106L35.5454 119.844ZM35.3068 123.151H33.3068C33.3068 125.588 33.8412 127.837 34.9551 129.847L36.7045 128.878L38.4539 127.909C37.7041 126.555 37.3068 124.986 37.3068 123.151H35.3068ZM36.7045 128.878L34.9505 129.839C36.0321 131.813 37.5574 133.391 39.4972 134.549L40.5227 132.832L41.5482 131.115C40.2152 130.319 39.195 129.261 38.4584 127.917L36.7045 128.878ZM40.5227 132.832L39.5149 134.56C41.4947 135.715 43.7375 136.264 46.1818 136.264V134.264V132.264C44.3533 132.264 42.8234 131.859 41.5304 131.105L40.5227 132.832ZM46.1818 134.264V136.264H75.8068V134.264V132.264H46.1818V134.264ZM75.8068 134.264H73.8068V148.787H75.8068H77.8068V134.264H75.8068ZM73.4545 102.023L75.1758 103.041L75.1828 103.029L73.4545 102.023ZM63.9772 110.92L64.8915 112.699L64.8955 112.697L63.9772 110.92ZM35.6477 110.92L36.566 109.144L36.5619 109.142L35.6477 110.92ZM26.1704 102.023L27.8961 101.012L27.8943 101.009L26.1704 102.023ZM26.1704 74.5796L27.8917 75.5981L27.8987 75.586L26.1704 74.5796ZM35.6477 65.6477L36.5619 67.4266L36.566 67.4245L35.6477 65.6477ZM63.9772 65.6477L64.8955 63.871L64.8915 63.8689L63.9772 65.6477ZM73.4545 74.5796L75.1802 73.5686L75.1784 73.5655L73.4545 74.5796ZM63.534 82.1818L65.0616 80.8909L65.0564 80.8847L65.051 80.8785L63.534 82.1818ZM57.8749 78.5341L57.2102 80.4204L57.2183 80.4232L57.2263 80.426L57.8749 78.5341ZM41.5795 78.5341L42.2281 80.426L42.2362 80.4232L42.2442 80.4204L41.5795 78.5341ZM35.9204 94.3523L34.3856 95.6347L34.3944 95.6451L35.9204 94.3523ZM41.5795 98.0682L40.9148 99.9545L40.9228 99.9573L40.9308 99.9601L41.5795 98.0682ZM57.8749 98.0682L58.5236 99.9601L58.5316 99.9573L58.5396 99.9545L57.8749 98.0682ZM63.534 94.3523L65.06 95.6451L65.0696 95.6337L65.0791 95.6222L63.534 94.3523ZM76.8295 88.2841H74.8295C74.8295 93.2915 73.7679 97.5103 71.7262 101.016L73.4545 102.023L75.1828 103.029C77.6411 98.8079 78.8295 93.8676 78.8295 88.2841H76.8295ZM73.4545 102.023L71.7332 101.004C69.6558 104.515 66.778 107.222 63.0589 109.144L63.9772 110.92L64.8955 112.697C69.2673 110.438 72.7078 107.212 75.1757 103.041L73.4545 102.023ZM63.9772 110.92L63.063 109.142C59.3227 111.064 54.93 112.057 49.8295 112.057V114.057V116.057C55.4563 116.057 60.4954 114.959 64.8915 112.699L63.9772 110.92ZM49.8295 114.057V112.057C44.6802 112.057 40.2789 111.063 36.566 109.144L35.6477 110.92L34.7294 112.697C39.1074 114.96 44.1606 116.057 49.8295 116.057V114.057ZM35.6477 110.92L36.5619 109.142C32.8218 107.219 29.9485 104.515 27.8961 101.012L26.1704 102.023L24.4447 103.034C26.8923 107.212 30.3371 110.44 34.7334 112.699L35.6477 110.92ZM26.1704 102.023L27.8943 101.009C25.8327 97.5041 24.7613 93.2881 24.7613 88.2841H22.7613H20.7613C20.7613 93.871 21.9626 98.8141 24.4465 103.037L26.1704 102.023ZM22.7613 88.2841H24.7613C24.7613 83.2797 25.8329 79.0774 27.8916 75.598L26.1704 74.5796L24.4491 73.5611C21.9625 77.7635 20.7613 82.6976 20.7613 88.2841H22.7613ZM26.1704 74.5796L27.8987 75.586C29.952 72.0602 32.825 69.3472 36.5619 67.4265L35.6477 65.6477L34.7334 63.8689C30.334 66.1301 26.8888 69.3716 24.4421 73.5731L26.1704 74.5796ZM35.6477 65.6477L36.566 67.4245C40.2789 65.5054 44.6802 64.5114 49.8295 64.5114V62.5114V60.5114C44.1606 60.5114 39.1074 61.6082 34.7294 63.871L35.6477 65.6477ZM49.8295 62.5114V64.5114C54.9299 64.5114 59.3227 65.5041 63.063 67.4265L63.9772 65.6477L64.8915 63.8689C60.4954 61.6095 55.4563 60.5114 49.8295 60.5114V62.5114ZM63.9772 65.6477L63.0589 67.4245C66.7749 69.3451 69.6523 72.0605 71.7306 75.5936L73.4545 74.5796L75.1784 73.5655C72.7112 69.3714 69.2704 66.1322 64.8955 63.871L63.9772 65.6477ZM73.4545 74.5796L71.7288 75.5905C73.7678 79.0712 74.8295 83.2763 74.8295 88.2841H76.8295H78.8295C78.8295 82.701 77.6412 77.7697 75.1802 73.5686L73.4545 74.5796ZM65.5795 88.2159H67.5795C67.5795 85.4046 66.7728 82.9158 65.0616 80.8909L63.534 82.1818L62.0064 83.4727C63.0225 84.6751 63.5795 86.2091 63.5795 88.2159H65.5795ZM63.534 82.1818L65.051 80.8785C63.3929 78.9485 61.1837 77.5542 58.5236 76.6422L57.8749 78.5341L57.2263 80.426C59.3389 81.1503 60.9024 82.1878 62.017 83.4852L63.534 82.1818ZM57.8749 78.5341L58.5396 76.6478C55.9013 75.7181 52.9543 75.2727 49.7272 75.2727V77.2727V79.2727C52.591 79.2727 55.0759 79.6683 57.2102 80.4204L57.8749 78.5341ZM49.7272 77.2727V75.2727C46.5001 75.2727 43.5532 75.7181 40.9148 76.6478L41.5795 78.5341L42.2442 80.4204C44.3786 79.6683 46.8634 79.2727 49.7272 79.2727V77.2727ZM41.5795 78.5341L40.9308 76.6422C38.2708 77.5542 36.0615 78.9485 34.4034 80.8785L35.9204 82.1818L37.4374 83.4852C38.552 82.1878 40.1155 81.1503 42.2281 80.426L41.5795 78.5341ZM35.9204 82.1818L34.4034 80.8785C32.6641 82.9029 31.8409 85.3961 31.8409 88.2159H33.8409H35.8409C35.8409 86.2176 36.404 84.688 37.4374 83.4852L35.9204 82.1818ZM33.8409 88.2159H31.8409C31.8409 91.0543 32.6611 93.5709 34.3857 95.6347L35.9204 94.3523L37.4551 93.0698C36.407 91.8155 35.8409 90.2411 35.8409 88.2159H33.8409ZM35.9204 94.3523L34.3944 95.6451C36.0484 97.5973 38.2544 99.017 40.9148 99.9545L41.5795 98.0682L42.2442 96.1819C40.1319 95.4375 38.5651 94.38 37.4464 93.0594L35.9204 94.3523ZM41.5795 98.0682L40.9308 99.9601C43.5641 100.863 46.5053 101.295 49.7272 101.295V99.2955V97.2955C46.8582 97.2955 44.3676 96.9098 42.2281 96.1763L41.5795 98.0682ZM49.7272 99.2955V101.295C52.9491 101.295 55.8903 100.863 58.5236 99.9601L57.8749 98.0682L57.2263 96.1763C55.0868 96.9098 52.5962 97.2955 49.7272 97.2955V99.2955ZM57.8749 98.0682L58.5396 99.9545C61.2001 99.017 63.406 97.5973 65.06 95.6451L63.534 94.3523L62.0081 93.0594C60.8893 94.38 59.3226 95.4375 57.2102 96.1819L57.8749 98.0682ZM63.534 94.3523L65.0791 95.6222C66.7756 93.5581 67.5795 91.046 67.5795 88.2159H65.5795H63.5795C63.5795 90.2494 63.0197 91.8283 61.989 93.0824L63.534 94.3523ZM95.4431 53.0682V55.0682H97.4431V53.0682H95.4431ZM23.4431 53.0682H21.4431V55.0682H23.4431V53.0682ZM23.4431 38.75V36.75H21.4431V38.75H23.4431ZM32.2386 38.75V40.75H34.2386V38.75H32.2386ZM32.2386 38.1023H34.2386V36.811L33.0618 36.2795L32.2386 38.1023ZM27.9431 35.3409L26.6651 36.8793L26.6675 36.8813L27.9431 35.3409ZM24.2613 30.5682L26.0502 29.6738L26.046 29.6656L24.2613 30.5682ZM25.7613 12.6364L27.4614 13.6899L27.4667 13.6812L25.7613 12.6364ZM34.7272 4.89774L35.597 6.69871L35.601 6.69676L34.7272 4.89774ZM64.4886 4.82956L63.6394 6.64036L63.6439 6.64245L64.4886 4.82956ZM73.5909 12.4659L75.2767 11.3898L75.2747 11.3868L73.5909 12.4659ZM75.2613 30.4318L77.0667 31.2925L77.0705 31.2844L75.2613 30.4318ZM71.7499 35.2386L73.0653 36.7453L73.0712 36.7401L73.0772 36.7348L71.7499 35.2386ZM67.4204 38.1023L66.5949 36.2806L65.4204 36.8128V38.1023H67.4204ZM67.4204 38.5455H65.4204V40.5455H67.4204V38.5455ZM95.4431 38.5455H97.4431V36.5455H95.4431V38.5455ZM63.1931 33.8068L64.7612 35.0482L64.7666 35.0415L64.7718 35.0347L63.1931 33.8068ZM63.159 21.8409L64.7271 20.5995L64.7219 20.5929L64.7165 20.5863L63.159 21.8409ZM57.7045 18.125L57.0122 20.0014L57.0225 20.0051L57.7045 18.125ZM41.6477 18.0909L40.9597 16.213L40.9597 16.213L41.6477 18.0909ZM36.2613 21.8068L34.6932 20.5654L34.6932 20.5654L36.2613 21.8068ZM36.1931 33.8409L34.6037 35.055L34.612 35.0657L36.1931 33.8409ZM41.5113 37.5568L40.807 39.4287L40.807 39.4287L41.5113 37.5568ZM95.4431 53.0682V51.0682H23.4431V53.0682V55.0682H95.4431V53.0682ZM23.4431 53.0682H25.4431V38.75H23.4431H21.4431V53.0682H23.4431ZM23.4431 38.75V40.75H32.2386V38.75V36.75H23.4431V38.75ZM32.2386 38.75H34.2386V38.1023H32.2386H30.2386V38.75H32.2386ZM32.2386 38.1023L33.0618 36.2795C31.8467 35.7308 30.5649 34.9154 29.2188 33.8005L27.9431 35.3409L26.6675 36.8813C28.2304 38.1756 29.8123 39.201 31.4154 39.925L32.2386 38.1023ZM27.9431 35.3409L29.2212 33.8025C27.9844 32.775 26.9206 31.4147 26.0502 29.6738L24.2613 30.5682L22.4725 31.4626C23.5566 33.6308 24.9473 35.4522 26.6651 36.8793L27.9431 35.3409ZM24.2613 30.5682L26.046 29.6656C25.2257 28.0436 24.7613 25.92 24.7613 23.2046H22.7613H20.7613C20.7613 26.3527 21.2969 29.1382 22.4766 31.4708L24.2613 30.5682ZM22.7613 23.2046H24.7613C24.7613 19.7564 25.6586 16.5989 27.4613 13.6899L25.7613 12.6364L24.0613 11.5828C21.864 15.1284 20.7613 19.0163 20.7613 23.2046H22.7613ZM25.7613 12.6364L27.4667 13.6812C29.211 10.8342 31.8812 8.49326 35.597 6.6987L34.7272 4.89774L33.8574 3.09677C29.5732 5.16585 26.2662 7.98398 24.0559 11.5915L25.7613 12.6364ZM34.7272 4.89774L35.601 6.69676C39.2268 4.93567 43.8934 4.00001 49.6931 4.00001V2.00001V9.53674e-06C43.4929 9.53674e-06 38.1822 0.996171 33.8534 3.09872L34.7272 4.89774ZM49.6931 2.00001V4.00001C55.3289 4.00001 59.9523 4.91132 63.6395 6.64035L64.4886 4.82956L65.3377 3.01876C60.9795 0.975058 55.7392 9.53674e-06 49.6931 9.53674e-06V2.00001ZM64.4886 4.82956L63.6439 6.64245C67.3534 8.37074 70.0728 10.683 71.907 13.545L73.5909 12.4659L75.2747 11.3868C72.9725 7.79433 69.6237 5.01564 65.3332 3.01666L64.4886 4.82956ZM73.5909 12.4659L71.905 13.542C73.7356 16.4099 74.659 19.6242 74.659 23.2386H76.659H78.659C78.659 18.8986 77.537 14.9311 75.2767 11.3898L73.5909 12.4659ZM76.659 23.2386H74.659C74.659 25.8442 74.2274 27.9341 73.4521 29.5792L75.2613 30.4318L77.0705 31.2844C78.1588 28.975 78.659 26.2695 78.659 23.2386H76.659ZM75.2613 30.4318L73.456 29.5711C72.6223 31.3199 71.6038 32.6948 70.4227 33.7425L71.7499 35.2386L73.0772 36.7348C74.7143 35.2825 76.0367 33.4529 77.0666 31.2925L75.2613 30.4318ZM71.7499 35.2386L70.4346 33.732C69.1228 34.8773 67.8417 35.7156 66.5949 36.2806L67.4204 38.1023L68.2459 39.924C69.9082 39.1707 71.5135 38.1 73.0653 36.7453L71.7499 35.2386ZM67.4204 38.1023H65.4204V38.5455H67.4204H69.4204V38.1023H67.4204ZM67.4204 38.5455V40.5455H95.4431V38.5455V36.5455H67.4204V38.5455ZM95.4431 38.5455H93.4431V53.0682H95.4431H97.4431V38.5455H95.4431ZM49.6249 38.8523V40.8523C52.9179 40.8523 55.8799 40.3962 58.4709 39.431L57.7727 37.5568L57.0745 35.6827C55.029 36.4447 52.5593 36.8523 49.6249 36.8523V38.8523ZM57.7727 37.5568L58.4709 39.431C61.0674 38.4637 63.2001 37.0202 64.7612 35.0482L63.1931 33.8068L61.625 32.5654C60.5953 33.8662 59.1143 34.9227 57.0745 35.6827L57.7727 37.5568ZM63.1931 33.8068L64.7718 35.0347C66.3525 33.0024 67.1022 30.5661 67.1022 27.8409H65.1022H63.1022C63.1022 29.7975 62.5792 31.3386 61.6144 32.5789L63.1931 33.8068ZM65.1022 27.8409H67.1022C67.1022 25.0896 66.339 22.6356 64.7271 20.5995L63.159 21.8409L61.5909 23.0823C62.57 24.319 63.1022 25.865 63.1022 27.8409H65.1022ZM63.159 21.8409L64.7165 20.5863C63.132 18.6192 60.9878 17.1885 58.3865 16.2449L57.7045 18.125L57.0225 20.0051C59.0575 20.7433 60.5497 21.7899 61.6015 23.0956L63.159 21.8409ZM57.7045 18.125L58.3967 16.2486C55.7914 15.2874 52.8562 14.8296 49.6249 14.8296V16.8296V18.8296C52.4846 18.8296 54.9358 19.2353 57.0122 20.0014L57.7045 18.125ZM49.6249 16.8296V14.8296C46.421 14.8296 43.5207 15.2748 40.9597 16.213L41.6477 18.0909L42.3356 19.9689C44.3655 19.2252 46.7834 18.8296 49.6249 18.8296V16.8296ZM41.6477 18.0909L40.9597 16.213C38.378 17.1588 36.2545 18.5933 34.6932 20.5654L36.2613 21.8068L37.8294 23.0482C38.859 21.7476 40.3265 20.7049 42.3356 19.9689L41.6477 18.0909ZM36.2613 21.8068L34.6932 20.5654C33.0786 22.6049 32.3181 25.0718 32.3181 27.8409H34.3181H36.3181C36.3181 25.8373 36.8531 24.2815 37.8294 23.0482L36.2613 21.8068ZM34.3181 27.8409H32.3181C32.3181 30.5756 33.049 33.0197 34.6038 35.055L36.1931 33.8409L37.7825 32.6268C36.8372 31.3894 36.3181 29.8336 36.3181 27.8409H34.3181ZM36.1931 33.8409L34.612 35.0657C36.1307 37.0262 38.2353 38.4612 40.807 39.4287L41.5113 37.5568L42.2156 35.6849C40.1964 34.9252 38.7555 33.8829 37.7742 32.6161L36.1931 33.8409ZM41.5113 37.5568L40.807 39.4287C43.3792 40.3965 46.3328 40.8523 49.6249 40.8523V38.8523V36.8523C46.6898 36.8523 44.2344 36.4445 42.2156 35.6849L41.5113 37.5568Z" fill="#2E4657" mask="url(#path-1-outside-1_16_130)"/>
</svg>
