<svg width="216" height="44" viewBox="0 0 216 44" fill="none" xmlns="http://www.w3.org/2000/svg">
<rect x="2.5" y="4.5" width="35" height="35" rx="17.5" stroke="white" stroke-width="5"/>
<rect x="22.5" y="4.5" width="35" height="35" rx="17.5" stroke="white" stroke-width="5"/>
<path d="M89.8178 17.9844H84.2184C84.1161 17.2599 83.9073 16.6165 83.592 16.054C83.2766 15.483 82.8718 14.9972 82.3775 14.5966C81.8832 14.196 81.3121 13.8892 80.6644 13.6761C80.0252 13.4631 79.3306 13.3565 78.5806 13.3565C77.2255 13.3565 76.0451 13.6932 75.0394 14.3665C74.0337 15.0312 73.2539 16.0028 72.6999 17.2812C72.146 18.5511 71.869 20.0937 71.869 21.9091C71.869 23.7756 72.146 25.3437 72.6999 26.6136C73.2624 27.8835 74.0465 28.8423 75.0522 29.4901C76.0579 30.1378 77.2212 30.4616 78.5423 30.4616C79.2837 30.4616 79.9698 30.3636 80.6005 30.1676C81.2397 29.9716 81.8065 29.6861 82.3008 29.3111C82.7951 28.9276 83.2042 28.4631 83.5281 27.9176C83.8604 27.3722 84.0906 26.75 84.2184 26.0511L89.8178 26.0767C89.6729 27.2784 89.3107 28.4375 88.7312 29.554C88.1602 30.6619 87.3889 31.6548 86.4173 32.5327C85.4542 33.402 84.3036 34.0923 82.9656 34.6037C81.636 35.1065 80.1317 35.358 78.4528 35.358C76.1175 35.358 74.0295 34.8295 72.1886 33.7727C70.3562 32.7159 68.9073 31.1861 67.842 29.1832C66.7852 27.1804 66.2567 24.7557 66.2567 21.9091C66.2567 19.054 66.7937 16.625 67.8675 14.6222C68.9414 12.6193 70.3988 11.0937 72.2397 10.0455C74.0806 8.98864 76.1516 8.46023 78.4528 8.46023C79.9698 8.46023 81.3761 8.67329 82.6715 9.09943C83.9755 9.52557 85.1303 10.1477 86.136 10.9659C87.1417 11.7756 87.9599 12.7685 88.5906 13.9446C89.2298 15.1207 89.6388 16.4673 89.8178 17.9844ZM99.131 8.81818V35H93.685V8.81818H99.131ZM103.494 35V15.3636H108.94V35H103.494ZM106.229 12.8324C105.42 12.8324 104.725 12.5639 104.146 12.027C103.575 11.4815 103.289 10.8295 103.289 10.071C103.289 9.32102 103.575 8.67756 104.146 8.14062C104.725 7.59517 105.42 7.32244 106.229 7.32244C107.039 7.32244 107.729 7.59517 108.3 8.14062C108.88 8.67756 109.17 9.32102 109.17 10.071C109.17 10.8295 108.88 11.4815 108.3 12.027C107.729 12.5639 107.039 12.8324 106.229 12.8324ZM113.302 42.3636V15.3636H118.672V18.6619H118.914C119.153 18.1335 119.498 17.5966 119.95 17.0511C120.41 16.4972 121.007 16.0369 121.74 15.6705C122.481 15.2955 123.402 15.108 124.501 15.108C125.933 15.108 127.254 15.483 128.464 16.233C129.674 16.9744 130.642 18.0952 131.366 19.5952C132.091 21.0866 132.453 22.9574 132.453 25.2074C132.453 27.3977 132.099 29.2472 131.392 30.7557C130.693 32.2557 129.738 33.3935 128.528 34.169C127.326 34.9361 125.98 35.3196 124.488 35.3196C123.431 35.3196 122.532 35.1449 121.791 34.7955C121.058 34.446 120.457 34.0071 119.988 33.4787C119.52 32.9418 119.162 32.4006 118.914 31.8551H118.748V42.3636H113.302ZM118.633 25.1818C118.633 26.3494 118.795 27.3679 119.119 28.2372C119.443 29.1065 119.912 29.7841 120.525 30.2699C121.139 30.7472 121.885 30.9858 122.762 30.9858C123.649 30.9858 124.399 30.7429 125.012 30.2571C125.626 29.7628 126.091 29.081 126.406 28.2116C126.73 27.3338 126.892 26.3239 126.892 25.1818C126.892 24.0483 126.734 23.0511 126.419 22.1903C126.103 21.3295 125.639 20.6562 125.025 20.1705C124.412 19.6847 123.657 19.4418 122.762 19.4418C121.876 19.4418 121.126 19.6761 120.512 20.1449C119.907 20.6136 119.443 21.2784 119.119 22.1392C118.795 23 118.633 24.0142 118.633 25.1818ZM145.16 35H137.081V8.81818H145.518C148.058 8.81818 150.231 9.34233 152.038 10.3906C153.845 11.4304 155.23 12.9261 156.193 14.8778C157.156 16.821 157.637 19.1477 157.637 21.858C157.637 24.5852 157.152 26.9332 156.18 28.902C155.208 30.8622 153.794 32.3707 151.936 33.4276C150.078 34.4759 147.819 35 145.16 35ZM140.251 32.1875H144.956C147.12 32.1875 148.914 31.7699 150.338 30.9347C151.761 30.0994 152.822 28.9105 153.521 27.3679C154.22 25.8253 154.569 23.9886 154.569 21.858C154.569 19.7443 154.224 17.9247 153.534 16.3991C152.843 14.8651 151.812 13.6889 150.44 12.8707C149.068 12.044 147.359 11.6307 145.314 11.6307H140.251V32.1875ZM162.547 35V15.3636H165.461V18.3295H165.666C166.024 17.358 166.672 16.5696 167.609 15.9645C168.547 15.3594 169.603 15.0568 170.779 15.0568C171.001 15.0568 171.278 15.0611 171.61 15.0696C171.943 15.0781 172.194 15.0909 172.365 15.108V18.1761C172.262 18.1506 172.028 18.1122 171.662 18.0611C171.304 18.0014 170.924 17.9716 170.524 17.9716C169.569 17.9716 168.717 18.1719 167.967 18.5724C167.225 18.9645 166.637 19.5099 166.203 20.2088C165.777 20.8991 165.564 21.6875 165.564 22.5739V35H162.547ZM183.321 35.4091C181.548 35.4091 179.993 34.9872 178.654 34.1435C177.325 33.2997 176.285 32.1193 175.535 30.6023C174.794 29.0852 174.423 27.3125 174.423 25.2841C174.423 23.2386 174.794 21.4531 175.535 19.9276C176.285 18.402 177.325 17.2173 178.654 16.3736C179.993 15.5298 181.548 15.108 183.321 15.108C185.093 15.108 186.645 15.5298 187.974 16.3736C189.312 17.2173 190.352 18.402 191.093 19.9276C191.843 21.4531 192.218 23.2386 192.218 25.2841C192.218 27.3125 191.843 29.0852 191.093 30.6023C190.352 32.1193 189.312 33.2997 187.974 34.1435C186.645 34.9872 185.093 35.4091 183.321 35.4091ZM183.321 32.6989C184.667 32.6989 185.775 32.3537 186.645 31.6634C187.514 30.973 188.157 30.0653 188.575 28.9403C188.993 27.8153 189.201 26.5966 189.201 25.2841C189.201 23.9716 188.993 22.7486 188.575 21.6151C188.157 20.4815 187.514 19.5653 186.645 18.8665C185.775 18.1676 184.667 17.8182 183.321 17.8182C181.974 17.8182 180.866 18.1676 179.997 18.8665C179.127 19.5653 178.484 20.4815 178.066 21.6151C177.649 22.7486 177.44 23.9716 177.44 25.2841C177.44 26.5966 177.649 27.8153 178.066 28.9403C178.484 30.0653 179.127 30.973 179.997 31.6634C180.866 32.3537 181.974 32.6989 183.321 32.6989ZM196.824 42.3636V15.3636H199.739V18.483H200.097C200.318 18.142 200.625 17.7074 201.017 17.179C201.418 16.642 201.989 16.1648 202.73 15.7472C203.48 15.321 204.494 15.108 205.773 15.108C207.426 15.108 208.884 15.5213 210.145 16.348C211.406 17.1747 212.391 18.3466 213.098 19.8636C213.805 21.3807 214.159 23.1705 214.159 25.233C214.159 27.3125 213.805 29.1151 213.098 30.6406C212.391 32.1577 211.411 33.3338 210.158 34.169C208.905 34.9957 207.46 35.4091 205.824 35.4091C204.563 35.4091 203.553 35.2003 202.794 34.7827C202.036 34.3565 201.452 33.875 201.043 33.3381C200.634 32.7926 200.318 32.3409 200.097 31.983H199.841V42.3636H196.824ZM199.79 25.1818C199.79 26.6648 200.007 27.973 200.442 29.1065C200.876 30.2315 201.511 31.1136 202.347 31.7528C203.182 32.3835 204.205 32.6989 205.415 32.6989C206.676 32.6989 207.729 32.3665 208.572 31.7017C209.425 31.0284 210.064 30.125 210.49 28.9915C210.925 27.8494 211.142 26.5795 211.142 25.1818C211.142 23.8011 210.929 22.5568 210.503 21.4489C210.085 20.3324 209.45 19.4503 208.598 18.8026C207.754 18.1463 206.693 17.8182 205.415 17.8182C204.188 17.8182 203.156 18.1293 202.321 18.7514C201.486 19.3651 200.855 20.2259 200.429 21.3338C200.003 22.4332 199.79 23.7159 199.79 25.1818Z" fill="white"/>
</svg>
